<svg xmlns="http://www.w3.org/2000/svg" viewBox="0 0 1024 1024" role="img" aria-labelledby="title desc">
  <title id="title">iWriter app icon</title>
  <desc id="desc">A lowercase i fused with a fountain pen nib rising from an open book.</desc>
  <defs>
    <linearGradient id="paper" x1="0" y1="0" x2="1" y2="1">
      <stop offset="0" stop-color="#fffdf6"/><stop offset="1" stop-color="#eee8dc"/>
    </linearGradient>
    <linearGradient id="ink" x1="0" y1="0" x2="1" y2="1">
      <stop offset="0" stop-color="#18202f"/><stop offset="1" stop-color="#070a10"/>
    </linearGradient>
    <linearGradient id="blue" x1="0" y1="0" x2="1" y2="1">
      <stop offset="0" stop-color="#1769ff"/><stop offset="1" stop-color="#0640c8"/>
    </linearGradient>
    <filter id="shadow" x="-20%" y="-20%" width="140%" height="160%">
      <feDropShadow dx="0" dy="18" stdDeviation="22" flood-color="#101827" flood-opacity=".16"/>
    </filter>
    <filter id="soft" x="-30%" y="-30%" width="160%" height="180%">
      <feDropShadow dx="0" dy="10" stdDeviation="12" flood-color="#101827" flood-opacity=".14"/>
    </filter>
  </defs>
  <rect x="34" y="34" width="956" height="956" rx="218" fill="url(#paper)" filter="url(#shadow)"/>
  <g filter="url(#soft)">
    <path d="M512 849C429 744 308 689 168 695l10 153c127-24 240 11 334 91V849Z" fill="#fffdf7"/>
    <path d="M512 849c83-105 204-160 344-154l-10 153c-127-24-240 11-334 91V849Z" fill="#fffdf7"/>
    <path d="M168 695c136 30 249 92 344 187v57c-94-80-207-115-334-91l-10-153Z" fill="#17202e" opacity=".95"/>
    <path d="M856 695c-136 30-249 92-344 187v57c94-80 207-115 334-91l10-153Z" fill="url(#blue)"/>
    <path d="M512 849C429 744 308 689 168 695c130-17 250 25 344 123v31Z" fill="#fffdf7"/>
    <path d="M512 849c83-105 204-160 344-154-130-17-250 25-344 123v31Z" fill="#fffdf7"/>
  </g>
  <g filter="url(#soft)">
    <circle cx="512" cy="205" r="76" fill="url(#blue)"/>
    <path d="M455 310c0-23 19-42 42-42h30c23 0 42 19 42 42v235l74 107-131 197-131-197 74-107V310Z" fill="url(#ink)"/>
    <circle cx="512" cy="642" r="30" fill="#fffaf0"/>
    <path d="M505 672h14v149l-7 28-7-28V672Z" fill="#fffaf0"/>
  </g>
</svg>
