<svg xmlns="http://www.w3.org/2000/svg" width="420" height="720" viewBox="0 0 420 720">
  <defs>
    <filter id="phoneShadow" x="-20%" y="-20%" width="140%" height="140%"><feDropShadow dx="0" dy="18" stdDeviation="24" flood-color="#000" flood-opacity=".45"/></filter>
    <style>
      text { font-family: Segoe UI, Microsoft YaHei UI, Arial, sans-serif; letter-spacing:0; }
      .mono { font-family: Cascadia Mono, Consolas, monospace; }
      .muted { fill:#4A4A6A; }
      .light { fill:#EEEEF8; }
      .accent { fill:#7C6AF7; }
    </style>
  </defs>
  <rect width="420" height="720" fill="#050508"/>
  <rect x="48" y="28" width="324" height="664" rx="32" fill="#07070E" stroke="#1E1E2E" filter="url(#phoneShadow)"/>
  <rect x="62" y="48" width="296" height="56" rx="0" fill="#07070E"/>
  <rect x="78" y="62" width="28" height="28" rx="6" fill="#7C6AF7"/>
  <text x="92" y="82" text-anchor="middle" font-size="18" font-weight="800" fill="#fff">G</text>
  <rect x="118" y="58" width="178" height="36" rx="18" fill="#13131F" stroke="#1E1E2E"/>
  <circle cx="137" cy="76" r="7" fill="none" stroke="#4A4A6A" stroke-width="2"/>
  <path d="M142 81l6 6" stroke="#4A4A6A" stroke-width="2" stroke-linecap="round"/>
  <text x="158" y="81" font-size="12" fill="#4A4A6A">Search file...</text>
  <rect x="308" y="60" width="38" height="32" rx="6" fill="#7C6AF7"/>
  <text x="327" y="80" text-anchor="middle" font-size="11" font-weight="700" fill="#fff">Upload</text>

  <g transform="translate(78 126)">
    <text x="0" y="0" class="mono" font-size="9" font-weight="800" fill="#4A4A6A">STORAGE USED</text>
    <text x="238" y="0" text-anchor="end" class="mono" font-size="10" fill="#4A4A6A">74.2 GB / 128 GB</text>
    <rect x="0" y="14" width="268" height="3" rx="1.5" fill="#1E1E2E"/>
    <rect x="0" y="14" width="155" height="3" rx="1.5" fill="#7C6AF7"/>
  </g>

  <g transform="translate(78 178)">
    <text x="0" y="0" font-size="11" font-weight="800" fill="#4A4A6A">ALL FILES</text>
    <g transform="translate(0 22)">
      <rect width="124" height="132" rx="8" fill="#13131F" stroke="#1E1E2E"/>
      <rect x="39" y="28" width="46" height="46" rx="8" fill="#13131F" stroke="#1E1E2E"/>
      <path d="M49 50h21l5 6h16v16H49z" fill="#F0A500"/>
      <text x="14" y="104" font-size="12" font-weight="700" fill="#EEEEF8">Project</text>
      <text x="14" y="121" font-size="10" fill="#4A4A6A">12 items</text>
    </g>
    <g transform="translate(138 22)">
      <rect width="124" height="132" rx="8" fill="#13131F" stroke="#1E1E2E"/>
      <rect x="39" y="28" width="46" height="46" rx="8" fill="#13131F" stroke="#1E1E2E"/>
      <path d="M55 38h28v38H55z" fill="#3B9EFF"/>
      <text x="14" y="104" font-size="12" font-weight="700" fill="#EEEEF8">Docs.pdf</text>
      <text x="14" y="121" font-size="10" fill="#4A4A6A">PDF</text>
    </g>
  </g>

  <g transform="translate(48 628)">
    <rect width="324" height="64" fill="#0F0F1A"/>
    <line x1="0" y1="0" x2="324" y2="0" stroke="#1E1E2E"/>
    <g transform="translate(0 0)">
      <path d="M34 26l12-10 12 10v18h-8V32h-8v12h-8z" fill="#7C6AF7"/>
      <text x="46" y="56" text-anchor="middle" font-size="10" font-weight="600" fill="#7C6AF7">Home</text>
    </g>
    <g transform="translate(81 0)">
      <path d="M31 23h18l4 5h13v16H31z" fill="none" stroke="#4A4A6A" stroke-width="2" stroke-linejoin="round"/>
      <text x="48" y="56" text-anchor="middle" font-size="10" fill="#4A4A6A">Files</text>
    </g>
    <g transform="translate(162 0)">
      <circle cx="48" cy="30" r="10" fill="none" stroke="#4A4A6A" stroke-width="2"/>
      <circle cx="38" cy="30" r="5" fill="none" stroke="#4A4A6A" stroke-width="2"/>
      <circle cx="58" cy="30" r="5" fill="none" stroke="#4A4A6A" stroke-width="2"/>
      <text x="48" y="56" text-anchor="middle" font-size="10" fill="#4A4A6A">Shared</text>
    </g>
    <g transform="translate(243 0)">
      <circle cx="48" cy="30" r="10" fill="none" stroke="#4A4A6A" stroke-width="2"/>
      <path d="M48 17v5M48 38v5M35 30h5M56 30h5" stroke="#4A4A6A" stroke-width="2" stroke-linecap="round"/>
      <text x="48" y="56" text-anchor="middle" font-size="10" fill="#4A4A6A">Settings</text>
    </g>
  </g>

  <g transform="translate(32 704)">
    <text x="0" y="0" class="mono" font-size="9" fill="#4A4A6A">Android reference: 64dp bottom nav · 20dp icons · 3dp icon/label gap · #7C6AF7 active</text>
  </g>
</svg>
