<svg xmlns="http://www.w3.org/2000/svg" width="453" height="611" viewBox="0 0 453 611">
  <defs>
    <filter id="shadowB" x="-20%" y="-20%" width="140%" height="140%">
      <feDropShadow dx="0" dy="18" stdDeviation="20" flood-color="#000" flood-opacity="0.45"/>
    </filter>
    <style>
      text { font-family: Segoe UI, Microsoft YaHei UI, Arial, sans-serif; letter-spacing: 0; }
      .mono { font-family: Cascadia Mono, Consolas, monospace; }
      .muted { fill: rgba(244,240,232,.68); }
      .faint { fill: rgba(244,240,232,.45); }
      .ink { fill: #f4f0e8; }
    </style>
  </defs>
  <rect x="1" y="1" width="451" height="609" rx="13" fill="#121415" stroke="rgba(255,255,255,.16)" filter="url(#shadowB)"/>
  <rect x="1" y="1" width="451" height="609" rx="13" fill="#151718"/>
  <rect x="1" y="1" width="56" height="609" rx="13" fill="#24231f"/>
  <rect x="44" y="1" width="13" height="609" fill="#24231f"/>
  <line x1="57" y1="1" x2="57" y2="610" stroke="rgba(255,255,255,.14)"/>

  <g transform="translate(13 18)">
    <rect width="30" height="30" rx="7" fill="#fffdf9"/>
    <path d="M15 6 24 11.2 15 16.3 6 11.2z" fill="#e7eaf5" stroke="#39405a" stroke-width="1"/>
    <path d="M6 12 15 17.2v7.8L6 19.8z" fill="#f4f2ee" stroke="#39405a" stroke-width="1"/>
    <path d="M24 12 15 17.2v7.8l9-5.2z" fill="#dde3f4" stroke="#39405a" stroke-width="1"/>
    <path d="M10.5 11.2 15 8.8l4.5 2.4-4.5 2.7z" fill="#fff" stroke="#6f8fff" stroke-width="1.2"/>
  </g>

  <g transform="translate(6 86)">
    <rect width="44" height="47" rx="13" fill="rgba(255,255,255,.10)" stroke="#6f8fff" stroke-width="2"/>
    <path d="M13 20l9-8 9 8v14h-6v-8h-6v8h-6z" fill="#f4f0e8"/>
    <text x="22" y="42" text-anchor="middle" font-size="9.5" fill="#f4f0e8">Home</text>
  </g>
  <g transform="translate(6 148)" fill="rgba(244,240,232,.66)">
    <path d="M12 16h16l3 4h8v17H12z" fill="none" stroke="currentColor" stroke-width="2" stroke-linejoin="round"/>
    <text x="22" y="43" text-anchor="middle" font-size="9.5">Files</text>
  </g>
  <g transform="translate(6 209)" fill="rgba(244,240,232,.66)">
    <path d="M31 17a9 9 0 0 0-18 0c0 9-5 9-5 13h28c0-4-5-4-5-13" fill="none" stroke="currentColor" stroke-width="2" stroke-linecap="round"/>
    <path d="M18 35a5 5 0 0 0 8 0" fill="none" stroke="currentColor" stroke-width="2" stroke-linecap="round"/>
    <text x="22" y="43" text-anchor="middle" font-size="9.5">Sync</text>
  </g>
  <g transform="translate(8 490)" fill="rgba(244,240,232,.70)">
    <rect x="0" y="0" width="40" height="40" rx="12" fill="rgba(255,255,255,.05)"/>
    <circle cx="20" cy="20" r="11" fill="none" stroke="currentColor" stroke-width="2"/>
    <path d="M9 20h22M20 9c4 4 6 7 6 11s-2 7-6 11M20 9c-4 4-6 7-6 11s2 7 6 11" fill="none" stroke="currentColor" stroke-width="2"/>
  </g>
  <g transform="translate(10 548)">
    <circle cx="18" cy="18" r="18" fill="rgba(255,255,255,.08)"/>
    <text x="18" y="23" text-anchor="middle" class="mono" font-size="12" font-weight="800" fill="#8f9fd2">ET</text>
  </g>

  <g transform="translate(75 18)">
    <rect width="356" height="42" rx="13" fill="#23221f"/>
    <circle cx="23" cy="21" r="8" fill="none" stroke="rgba(244,240,232,.58)" stroke-width="2"/>
    <path d="M29 27l8 8" stroke="rgba(244,240,232,.58)" stroke-width="2" stroke-linecap="round"/>
    <text x="50" y="27" font-size="15" fill="rgba(244,240,232,.68)">Search files</text>
  </g>

  <g transform="translate(75 83)">
    <text x="0" y="0" class="mono" font-size="10" font-weight="800" fill="#8f9fd2">GYENBOX</text>
    <text x="0" y="26" font-size="21" font-weight="760" fill="#f4f0e8">Files</text>
    <text x="0" y="49" class="mono" font-size="10.5" fill="rgba(244,240,232,.58)">C:\Users\Ethan\GyenBox</text>
  </g>
  <line x1="57" y1="151" x2="452" y2="151" stroke="rgba(255,255,255,.10)"/>

  <g transform="translate(75 171)">
    <g>
      <path d="M0 17h18l5 5h20v20H0z" fill="#ffd96a"/>
      <text x="62" y="20" font-size="14" font-weight="700" fill="#f4f0e8">05-Docs</text>
      <text x="62" y="40" font-size="11" fill="rgba(244,240,232,.68)">Synced · folder</text>
      <text x="340" y="31" text-anchor="middle" font-size="18" fill="#94d39b">✓</text>
    </g>
    <line x1="0" y1="64" x2="356" y2="64" stroke="rgba(255,255,255,.10)"/>
    <g transform="translate(0 80)">
      <rect x="2" y="6" width="31" height="35" rx="3" fill="#f4f0e8"/>
      <path d="M25 6v10h8" fill="#d8d8d8"/>
      <text x="62" y="20" font-size="14" font-weight="700" fill="#f4f0e8">openclaw_fixed.json</text>
      <text x="62" y="40" font-size="11" fill="rgba(244,240,232,.68)">Synced · 28 KB</text>
      <text x="340" y="31" text-anchor="middle" font-size="18" fill="#94d39b">✓</text>
    </g>
    <line x1="0" y1="144" x2="356" y2="144" stroke="rgba(255,255,255,.10)"/>
    <g transform="translate(0 160)">
      <path d="M0 17h18l5 5h20v20H0z" fill="#ffd96a"/>
      <text x="62" y="20" font-size="14" font-weight="700" fill="#f4f0e8">Project assets</text>
      <text x="62" y="40" font-size="11" fill="rgba(244,240,232,.68)">Waiting · folder</text>
      <text x="340" y="31" text-anchor="middle" font-size="18" fill="#6f8fff">~</text>
    </g>
    <line x1="0" y1="224" x2="356" y2="224" stroke="rgba(255,255,255,.10)"/>
    <g transform="translate(0 240)">
      <rect x="2" y="6" width="31" height="35" rx="3" fill="#f4f0e8"/>
      <text x="18" y="30" text-anchor="middle" class="mono" font-size="14" fill="#84ae8b">{}</text>
      <text x="62" y="20" font-size="14" font-weight="700" fill="#f4f0e8">notes.md</text>
      <text x="62" y="40" font-size="11" fill="rgba(244,240,232,.68)">Synced · 4 KB</text>
      <text x="340" y="31" text-anchor="middle" font-size="18" fill="#94d39b">✓</text>
    </g>
  </g>

  <g transform="translate(57 548)">
    <rect width="395" height="62" fill="#151718"/>
    <line x1="0" y1="0" x2="395" y2="0" stroke="rgba(255,255,255,.12)"/>
    <text x="25" y="37" font-size="15" fill="#94d39b">✓</text>
    <text x="56" y="37" font-size="14" font-weight="700" fill="#f4f0e8">Your files are up to date</text>
  </g>

  <text x="254" y="592" text-anchor="middle" class="mono" font-size="9" fill="rgba(244,240,232,.34)">Option B · compact side rail</text>
</svg>
