<svg xmlns="http://www.w3.org/2000/svg" width="1600" height="980" viewBox="0 0 1600 980">
  <defs>
    <filter id="shadow" x="-20%" y="-20%" width="140%" height="140%">
      <feDropShadow dx="0" dy="22" stdDeviation="26" flood-color="#000" flood-opacity="0.42"/>
    </filter>
    <linearGradient id="paper" x1="0" y1="0" x2="1" y2="1">
      <stop offset="0" stop-color="#151719"/>
      <stop offset="1" stop-color="#101214"/>
    </linearGradient>
    <linearGradient id="rail" x1="0" y1="0" x2="0" y2="1">
      <stop offset="0" stop-color="#2a2824"/>
      <stop offset="1" stop-color="#211f1b"/>
    </linearGradient>
    <style>
      .bg { fill:#0d0f11; }
      .caption { fill:#e9e4da; font:700 24px 'Segoe UI',Arial,sans-serif; }
      .sub { fill:#a7a19a; font:500 14px 'Segoe UI',Arial,sans-serif; }
      .panel { fill:url(#paper); stroke:rgba(255,255,255,.18); stroke-width:1.3; }
      .rail { fill:url(#rail); }
      .line { stroke:rgba(255,255,255,.12); stroke-width:1; }
      .ink { fill:#f4f0e8; font-family:'Segoe UI',Arial,sans-serif; }
      .muted { fill:#bdb7ae; font-family:'Segoe UI',Arial,sans-serif; }
      .faint { fill:#8f8982; font-family:'Segoe UI',Arial,sans-serif; }
      .mono { fill:#8fa0ff; font:800 12px 'Cascadia Mono','Consolas',monospace; letter-spacing:.2px; }
      .search { fill:#24231f; }
      .tab { fill:#f4f0e8; font:800 17px 'Segoe UI',Arial,sans-serif; }
      .tab-muted { fill:#bcb5ad; font:700 17px 'Segoe UI',Arial,sans-serif; }
      .section { fill:#a7a19a; font:800 15px 'Segoe UI',Arial,sans-serif; }
      .title { fill:#f4f0e8; font:700 17px 'Segoe UI',Arial,sans-serif; }
      .meta { fill:#b8b1a8; font:500 13px 'Segoe UI',Arial,sans-serif; }
      .status { fill:#f4f0e8; font:800 16px 'Segoe UI',Arial,sans-serif; }
      .blue { stroke:#6f8fff; }
      .blueFill { fill:#6f8fff; }
      .good { fill:#84ae8b; }
      .folder { fill:#f7c84e; stroke:#d5a931; stroke-width:1; }
      .file { fill:#e9e4da; stroke:#c9c1b6; stroke-width:1; }
      .iconLine { fill:none; stroke:#d7d0c7; stroke-width:2.3; stroke-linecap:round; stroke-linejoin:round; }
      .smallIcon { fill:none; stroke:#d7d0c7; stroke-width:2; stroke-linecap:round; stroke-linejoin:round; }
      .note { fill:#bdb7ae; font:500 14px 'Segoe UI',Arial,sans-serif; }
      .brandBox { fill:#fffdf9; stroke:#c8c1b8; stroke-width:1; }
      .brandCore { fill:#fffdf9; stroke:#5f74c4; stroke-width:1.8; }
      .brandTop { fill:#e7eaf5; stroke:#1a1a1a; stroke-opacity:.5; stroke-width:1.2; }
      .brandSideA { fill:#f4f2ee; stroke:#1a1a1a; stroke-opacity:.38; stroke-width:1.2; }
      .brandSideB { fill:#dde3f4; stroke:#1a1a1a; stroke-opacity:.38; stroke-width:1.2; }
    </style>
  </defs>
  <rect class="bg" width="1600" height="980"/>
  <text x="80" y="62" class="caption">GyenBox Desktop Redesign Preview</text>
  <text x="80" y="88" class="sub">Same product language, two density profiles. Home is list-first, not dashboard-first.</text>

  <!-- 100 percent panel -->
  <g transform="translate(80 140)" filter="url(#shadow)">
    <text x="0" y="-38" class="caption">100% Standard</text>
    <text x="0" y="-16" class="sub">640 x 740 logical px · comfortable spacing</text>
    <rect class="panel" x="0" y="0" width="640" height="740" rx="13"/>
    <rect class="rail" x="0" y="0" width="88" height="740" rx="13"/>
    <line x1="88" y1="0" x2="88" y2="740" class="line"/>
    <!-- brand -->
    <g transform="translate(28 34)">
      <rect class="brandBox" x="0" y="0" width="34" height="34" rx="4"/>
      <path class="brandTop" d="M17 4.5 29 11.5 17 18 5 11.5 17 4.5Z"/>
      <path class="brandSideA" d="M5 11.5 17 18v12L5 23.5Z"/>
      <path class="brandSideB" d="M29 11.5 17 18v12l12-6.5Z"/>
      <path class="brandCore" d="M10.5 11.6 17 8l6.5 3.6L17 15.2Z"/>
      <path d="M12 24c0 2.5 2 4 5 4h5" fill="none" stroke="#5f74c4" stroke-width="2.2" stroke-linecap="round"/>
    </g>
    <rect x="19" y="82" width="50" height="22" rx="11" fill="rgba(255,255,255,.055)" stroke="rgba(255,255,255,.16)"/>
    <text x="28" y="98" class="mono">v0.1.20</text>
    <!-- nav -->
    <g transform="translate(13 140)">
      <rect x="0" y="0" width="62" height="70" rx="18" fill="rgba(255,255,255,.10)" stroke="#6f8fff" stroke-width="3"/>
      <path d="M18 31 31 20l13 11c.6.5.2 1.6-.6 1.6h-1.1v12.7c0 1.1-.9 2-2 2h-5.1v-9.2h-6.4v9.2h-5.1c-1.1 0-2-.9-2-2V32.6h-1.1c-.8 0-1.2-1-.6-1.6Z" fill="#f4f0e8"/>
      <text x="31" y="61" text-anchor="middle" class="ink" font-size="13" font-weight="700">Home</text>
    </g>
    <g transform="translate(13 232)">
      <path class="iconLine" d="M18 28h16l5 5h9v17H18zM18 37h30"/>
      <text x="31" y="64" text-anchor="middle" class="muted" font-size="13">Folders</text>
    </g>
    <g transform="translate(13 324)">
      <path class="iconLine" d="M42 40H20c0-4 4-4 4-15a7 7 0 0 1 14 0c0 11 4 11 4 15M28 45a4 4 0 0 0 8 0"/>
      <text x="31" y="64" text-anchor="middle" class="muted" font-size="13">Activity</text>
    </g>
    <g transform="translate(31 612)"><circle cx="13" cy="13" r="13" fill="rgba(255,255,255,.08)"/><path class="iconLine" d="M4 13h18M13 2c4 4 6 7 6 11s-2 7-6 11M13 2C9 6 7 9 7 13s2 7 6 11"/></g>
    <circle cx="44" cy="690" r="24" fill="rgba(255,255,255,.10)"/>
    <text x="44" y="696" text-anchor="middle" fill="#b8c2ff" font="800 14px 'Segoe UI'">ET</text>

    <!-- content -->
    <rect x="120" y="28" width="486" height="54" rx="16" class="search"/>
    <circle cx="146" cy="55" r="10" fill="none" stroke="#aaa39b" stroke-width="2.6"/>
    <path d="m153 62 9 9" stroke="#aaa39b" stroke-width="2.6" stroke-linecap="round"/>
    <text x="176" y="62" class="muted" font-size="20">Search GyenBox</text>
    <text x="120" y="138" class="tab">You</text>
    <text x="190" y="138" class="tab-muted">Shared</text>
    <line x1="116" y1="164" x2="606" y2="164" class="line"/>
    <line x1="116" y1="164" x2="168" y2="164" stroke="#f4f0e8" stroke-width="3"/>

    <text x="120" y="210" class="section">Today</text>
    <g transform="translate(120 236)">
      <path class="folder" d="M0 13h18l5 5h33v37H0z"/><path class="folder" d="M0 22h56v33H0z" opacity=".92"/>
      <text x="78" y="21" class="title">Desktop sync folder</text>
      <text x="78" y="45" class="meta">Synced just now · GyenBox</text>
      <circle cx="460" cy="28" r="13" fill="#26b833"/><path d="M454 28l5 5 9-11" fill="none" stroke="#fff" stroke-width="3" stroke-linecap="round" stroke-linejoin="round"/>
    </g>
    <g transform="translate(120 318)">
      <path class="file" d="M5 0h30l14 14v42H5z"/><path d="M35 0v14h14" fill="#d9d2c7"/>
      <text x="78" y="20" class="title">1.txt</text>
      <text x="78" y="44" class="meta">Uploaded 4 minutes ago · C:\Users\Ethan\Desktop\1</text>
      <circle cx="460" cy="28" r="13" fill="#26b833"/><path d="M454 28l5 5 9-11" fill="none" stroke="#fff" stroke-width="3" stroke-linecap="round" stroke-linejoin="round"/>
    </g>
    <text x="120" y="426" class="section">Last 7 Days</text>
    <g transform="translate(120 452)">
      <path class="folder" d="M0 13h18l5 5h33v37H0z"/><path class="folder" d="M0 22h56v33H0z" opacity=".92"/>
      <text x="78" y="21" class="title">New folder</text>
      <text x="78" y="45" class="meta">Added yesterday · GyenBox</text>
    </g>
    <g transform="translate(120 532)">
      <path class="file" d="M5 0h30l14 14v42H5z"/><path d="M35 0v14h14" fill="#d9d2c7"/>
      <text x="78" y="20" class="title">gyenbox-sync-test.txt</text>
      <text x="78" y="44" class="meta">Uploaded 2 days ago · GyenBox</text>
    </g>
    <rect x="88" y="676" width="552" height="64" fill="#141615"/>
    <line x1="88" y1="676" x2="640" y2="676" class="line"/>
    <path d="M122 708l8 8 16-19" fill="none" stroke="#f4f0e8" stroke-width="3" stroke-linecap="round" stroke-linejoin="round"/>
    <text x="166" y="714" class="status">Your files are up to date</text>
    <path d="M575 704l9 9 9-9" fill="none" stroke="#f4f0e8" stroke-width="2" stroke-linecap="round"/>
  </g>

  <!-- 175 percent compact panel -->
  <g transform="translate(865 180)" filter="url(#shadow)">
    <text x="0" y="-38" class="caption">175% Compact</text>
    <text x="0" y="-16" class="sub">560 x 660 logical px · same structure, tighter tokens</text>
    <rect class="panel" x="0" y="0" width="560" height="660" rx="13"/>
    <rect class="rail" x="0" y="0" width="74" height="660" rx="13"/>
    <line x1="74" y1="0" x2="74" y2="660" class="line"/>
    <g transform="translate(23 26)">
      <rect class="brandBox" x="0" y="0" width="30" height="30" rx="4"/>
      <path class="brandTop" d="M15 4 26 10.4 15 16 4 10.4 15 4Z"/>
      <path class="brandSideA" d="M4 10.4 15 16v10.5L4 21Z"/>
      <path class="brandSideB" d="M26 10.4 15 16v10.5L26 21Z"/>
      <path class="brandCore" d="M9.5 10.5 15 7.3l5.5 3.2L15 13.8Z"/>
    </g>
    <rect x="15" y="67" width="45" height="20" rx="10" fill="rgba(255,255,255,.055)" stroke="rgba(255,255,255,.16)"/>
    <text x="22" y="81" class="mono" font-size="10">v0.1.20</text>
    <g transform="translate(9 122)">
      <rect x="0" y="0" width="56" height="64" rx="17" fill="rgba(255,255,255,.10)" stroke="#6f8fff" stroke-width="3"/>
      <path d="M16 29 28 19l12 10c.6.5.2 1.5-.6 1.5h-1v11.8c0 1-.8 1.8-1.8 1.8h-4.7v-8.5h-5.8v8.5h-4.7c-1 0-1.8-.8-1.8-1.8V30.5h-1c-.8 0-1.2-1-.6-1.5Z" fill="#f4f0e8"/>
      <text x="28" y="56" text-anchor="middle" class="ink" font-size="12" font-weight="700">Home</text>
    </g>
    <g transform="translate(9 208)">
      <path class="iconLine" d="M16 28h14l5 5h8v16H16zM16 37h27"/>
      <text x="28" y="60" text-anchor="middle" class="muted" font-size="12">Folders</text>
    </g>
    <g transform="translate(9 292)">
      <path class="iconLine" d="M38 39H18c0-4 4-4 4-14a6 6 0 0 1 12 0c0 10 4 10 4 14M25 44a3.5 3.5 0 0 0 7 0"/>
      <text x="28" y="60" text-anchor="middle" class="muted" font-size="12">Activity</text>
    </g>
    <g transform="translate(24 540)"><circle cx="13" cy="13" r="12" fill="rgba(255,255,255,.08)"/><path class="iconLine" d="M4 13h18M13 2c4 4 6 7 6 11s-2 7-6 11M13 2C9 6 7 9 7 13s2 7 6 11"/></g>
    <circle cx="37" cy="618" r="22" fill="rgba(255,255,255,.10)"/>
    <text x="37" y="624" text-anchor="middle" fill="#b8c2ff" font="800 13px 'Segoe UI'">ET</text>

    <rect x="100" y="25" width="426" height="48" rx="15" class="search"/>
    <circle cx="123" cy="49" r="9" fill="none" stroke="#aaa39b" stroke-width="2.4"/>
    <path d="m130 56 8 8" stroke="#aaa39b" stroke-width="2.4" stroke-linecap="round"/>
    <text x="154" y="56" class="muted" font-size="18">Search GyenBox</text>
    <text x="100" y="120" class="tab" font-size="16">You</text>
    <text x="165" y="120" class="tab-muted" font-size="16">Shared</text>
    <line x1="96" y1="144" x2="526" y2="144" class="line"/>
    <line x1="96" y1="144" x2="145" y2="144" stroke="#f4f0e8" stroke-width="3"/>
    <text x="100" y="187" class="section" font-size="14">Today</text>
    <g transform="translate(100 211)">
      <path class="folder" d="M0 12h16l5 5h30v33H0z"/><path class="folder" d="M0 20h51v30H0z" opacity=".92"/>
      <text x="68" y="18" class="title" font-size="16">Desktop sync folder</text>
      <text x="68" y="40" class="meta" font-size="12">Synced just now · GyenBox</text>
      <circle cx="396" cy="25" r="12" fill="#26b833"/><path d="M391 25l4 5 8-10" fill="none" stroke="#fff" stroke-width="2.7" stroke-linecap="round" stroke-linejoin="round"/>
    </g>
    <g transform="translate(100 286)">
      <path class="file" d="M5 0h27l12 12v38H5z"/><path d="M32 0v12h12" fill="#d9d2c7"/>
      <text x="68" y="18" class="title" font-size="16">1.txt</text>
      <text x="68" y="40" class="meta" font-size="12">Uploaded 4 minutes ago · Desktop\1</text>
      <circle cx="396" cy="25" r="12" fill="#26b833"/><path d="M391 25l4 5 8-10" fill="none" stroke="#fff" stroke-width="2.7" stroke-linecap="round" stroke-linejoin="round"/>
    </g>
    <text x="100" y="388" class="section" font-size="14">Last 7 Days</text>
    <g transform="translate(100 410)">
      <path class="folder" d="M0 12h16l5 5h30v33H0z"/><path class="folder" d="M0 20h51v30H0z" opacity=".92"/>
      <text x="68" y="18" class="title" font-size="16">New folder</text>
      <text x="68" y="40" class="meta" font-size="12">Added yesterday · GyenBox</text>
    </g>
    <g transform="translate(100 482)">
      <path class="file" d="M5 0h27l12 12v38H5z"/><path d="M32 0v12h12" fill="#d9d2c7"/>
      <text x="68" y="18" class="title" font-size="16">gyenbox-sync-test.txt</text>
      <text x="68" y="40" class="meta" font-size="12">Uploaded 2 days ago</text>
    </g>
    <rect x="74" y="600" width="486" height="60" fill="#141615"/>
    <line x1="74" y1="600" x2="560" y2="600" class="line"/>
    <path d="M106 631l8 8 15-18" fill="none" stroke="#f4f0e8" stroke-width="3" stroke-linecap="round" stroke-linejoin="round"/>
    <text x="148" y="637" class="status" font-size="15">Your files are up to date</text>
    <path d="M498 627l8 8 8-8" fill="none" stroke="#f4f0e8" stroke-width="2" stroke-linecap="round"/>
  </g>

  <g transform="translate(80 928)">
    <text class="note">Why Dropbox does not deform at 175%: it uses a single-column list shell. GyenBox should keep sync controls in Folders/Preferences, not on Home.</text>
  </g>
</svg>

