<svg xmlns="http://www.w3.org/2000/svg" width="453" height="611" viewBox="0 0 453 611">
  <defs>
    <filter id="shadowA" x="-20%" y="-20%" width="140%" height="140%">
      <feDropShadow dx="0" dy="18" stdDeviation="20" flood-color="#000" flood-opacity="0.45"/>
    </filter>
    <style>
      text { font-family: Segoe UI, Microsoft YaHei UI, Arial, sans-serif; letter-spacing: 0; }
      .mono { font-family: Cascadia Mono, Consolas, monospace; }
      .muted { fill: rgba(244,240,232,.68); }
      .faint { fill: rgba(244,240,232,.45); }
      .ink { fill: #f4f0e8; }
      .line { stroke: rgba(255,255,255,.12); }
      .iconStroke { fill: none; stroke: currentColor; stroke-width: 2.2; stroke-linecap: round; stroke-linejoin: round; }
    </style>
  </defs>
  <rect x="1" y="1" width="451" height="609" rx="13" fill="#121415" stroke="rgba(255,255,255,.16)" filter="url(#shadowA)"/>
  <rect x="1" y="1" width="451" height="609" rx="13" fill="#151718"/>

  <g transform="translate(18 18)">
    <rect width="417" height="42" rx="13" fill="#23221f"/>
    <circle cx="23" cy="21" r="8" fill="none" stroke="rgba(244,240,232,.58)" stroke-width="2"/>
    <path d="M29 27l8 8" stroke="rgba(244,240,232,.58)" stroke-width="2" stroke-linecap="round"/>
    <text x="50" y="27" font-size="15" fill="rgba(244,240,232,.68)">Search files</text>
  </g>

  <g transform="translate(20 82)">
    <g transform="translate(0 0)">
      <rect x="0" y="0" width="31" height="31" rx="7" fill="#fffdf9"/>
      <path d="M15.5 6.5 25 12 15.5 17.3 6 12z" fill="#e7eaf5" stroke="#39405a" stroke-width="1"/>
      <path d="M6 12.7 15.5 18v8L6 20.8z" fill="#f4f2ee" stroke="#39405a" stroke-width="1"/>
      <path d="M25 12.7 15.5 18v8l9.5-5.2z" fill="#dde3f4" stroke="#39405a" stroke-width="1"/>
      <path d="M10.7 12 15.5 9.3 20.3 12l-4.8 2.7z" fill="#fff" stroke="#6f8fff" stroke-width="1.3"/>
    </g>
    <text x="43" y="14" class="mono" font-size="10" font-weight="800" fill="#8f9fd2">GYENBOX</text>
    <text x="43" y="34" font-size="20" font-weight="750" fill="#f4f0e8">Files</text>
    <text x="0" y="62" class="mono" font-size="10.5" fill="rgba(244,240,232,.58)">C:\Users\Ethan\GyenBox</text>
  </g>

  <g transform="translate(20 158)">
    <g>
      <rect x="0" y="0" width="413" height="58" rx="9" fill="#1a1c1d" stroke="rgba(255,255,255,.08)"/>
      <path d="M18 22h18l5 5h19v18H18z" fill="#f2c94c"/>
      <path d="M18 27h42v18H18z" fill="#ffd96a"/>
      <text x="78" y="25" font-size="14" font-weight="700" class="ink">05-Docs</text>
      <text x="78" y="45" font-size="11" class="muted">Synced · folder</text>
      <text x="372" y="37" text-anchor="middle" font-size="18" fill="#94d39b">✓</text>
    </g>
    <g transform="translate(0 68)">
      <rect x="0" y="0" width="413" height="58" rx="9" fill="#151718" stroke="rgba(255,255,255,.08)"/>
      <rect x="19" y="14" width="31" height="35" rx="3" fill="#f4f0e8"/>
      <path d="M42 14v10h8" fill="#d8d8d8"/>
      <text x="78" y="25" font-size="14" font-weight="700" class="ink">openclaw_fixed.json</text>
      <text x="78" y="45" font-size="11" class="muted">Synced · 28 KB</text>
      <text x="372" y="37" text-anchor="middle" font-size="18" fill="#94d39b">✓</text>
    </g>
    <g transform="translate(0 136)">
      <rect x="0" y="0" width="413" height="58" rx="9" fill="#151718" stroke="rgba(255,255,255,.08)"/>
      <path d="M18 22h18l5 5h19v18H18z" fill="#f2c94c"/>
      <path d="M18 27h42v18H18z" fill="#ffd96a"/>
      <text x="78" y="25" font-size="14" font-weight="700" class="ink">Project assets</text>
      <text x="78" y="45" font-size="11" class="muted">Waiting · folder</text>
      <text x="372" y="37" text-anchor="middle" font-size="18" fill="#6f8fff">~</text>
    </g>
    <g transform="translate(0 204)">
      <rect x="0" y="0" width="413" height="58" rx="9" fill="#151718" stroke="rgba(255,255,255,.08)"/>
      <rect x="19" y="14" width="31" height="35" rx="3" fill="#f4f0e8"/>
      <text x="34" y="38" text-anchor="middle" class="mono" font-size="14" fill="#84ae8b">{}</text>
      <text x="78" y="25" font-size="14" font-weight="700" class="ink">notes.md</text>
      <text x="78" y="45" font-size="11" class="muted">Synced · 4 KB</text>
      <text x="372" y="37" text-anchor="middle" font-size="18" fill="#94d39b">✓</text>
    </g>
  </g>

  <g transform="translate(0 499)">
    <rect x="1" y="0" width="451" height="49" fill="#151718" stroke="rgba(255,255,255,.10)"/>
    <text x="24" y="31" font-size="15" fill="#94d39b">✓</text>
    <text x="53" y="31" font-size="14" font-weight="700" class="ink">Your files are up to date</text>
  </g>

  <g transform="translate(1 548)">
    <rect width="451" height="62" rx="0" fill="#24231f"/>
    <line x1="0" y1="0" x2="451" y2="0" stroke="rgba(255,255,255,.14)"/>
    <g transform="translate(17 8)">
      <rect x="0" y="0" width="58" height="46" rx="13" fill="rgba(255,255,255,.10)" stroke="#6f8fff" stroke-width="2"/>
      <path d="M20 20l9-8 9 8v13h-6v-8h-6v8h-6z" fill="#f4f0e8"/>
      <text x="29" y="42" text-anchor="middle" font-size="10.5" fill="#f4f0e8">Home</text>
    </g>
    <g transform="translate(106 8)" fill="rgba(244,240,232,.68)">
      <path d="M18 18h15l3 4h12v14H18z" fill="none" stroke="currentColor" stroke-width="2.1" stroke-linejoin="round"/>
      <text x="33" y="42" text-anchor="middle" font-size="10.5">Folders</text>
    </g>
    <g transform="translate(201 8)" fill="rgba(244,240,232,.68)">
      <path d="M34 15a9 9 0 0 0-18 0c0 10-5 10-5 14h28c0-4-5-4-5-14" fill="none" stroke="currentColor" stroke-width="2.1" stroke-linecap="round"/>
      <path d="M22 34a5 5 0 0 0 8 0" fill="none" stroke="currentColor" stroke-width="2.1" stroke-linecap="round"/>
      <text x="25" y="42" text-anchor="middle" font-size="10.5">Activity</text>
    </g>
    <g transform="translate(302 8)" fill="rgba(244,240,232,.68)">
      <circle cx="23" cy="22" r="12" fill="none" stroke="currentColor" stroke-width="2.1"/>
      <path d="M11 22h24M23 10c4 4 6 8 6 12s-2 8-6 12M23 10c-4 4-6 8-6 12s2 8 6 12" fill="none" stroke="currentColor" stroke-width="2.1"/>
      <text x="23" y="42" text-anchor="middle" font-size="10.5">Web</text>
    </g>
    <g transform="translate(390 9)">
      <circle cx="22" cy="20" r="16" fill="rgba(255,255,255,.08)"/>
      <text x="22" y="25" text-anchor="middle" class="mono" font-size="12" font-weight="800" fill="#8f9fd2">ET</text>
      <text x="22" y="42" text-anchor="middle" font-size="10.5" fill="rgba(244,240,232,.68)">Me</text>
    </g>
  </g>

  <text x="226" y="592" text-anchor="middle" class="mono" font-size="9" fill="rgba(244,240,232,.34)">Option A · bottom navigation</text>
</svg>
